<mxfile host="app.diagrams.net" modified="2022-01-21T21:25:55.147Z" agent="5.0 (Macintosh; Intel Mac OS X 10_15_7) AppleWebKit/605.1.15 (KHTML, like Gecko) Version/15.2 Safari/605.1.15" etag="fg_wyjvsCUmQvtm_aRXe" version="16.4.5" type="github">
  <diagram id="f3gJcNAZmLqym7b9hVOq" name="Page-1">
    <mxGraphModel dx="873" dy="1670" grid="1" gridSize="10" guides="1" tooltips="1" connect="1" arrows="1" fold="1" page="1" pageScale="1" pageWidth="850" pageHeight="1100" math="0" shadow="0">
      <root>
        <mxCell id="0" />
        <mxCell id="1" parent="0" />
        <mxCell id="EiuZzaFnxPziSjAOLLgH-1" value="&lt;h1&gt;Entity Relation Diagram&lt;/h1&gt;&lt;p&gt;This is an overview of our Entity Relation Diagram for the KGA Database&amp;nbsp;&lt;/p&gt;" style="text;html=1;strokeColor=none;fillColor=none;spacing=5;spacingTop=-20;whiteSpace=wrap;overflow=hidden;rounded=0;" parent="1" vertex="1">
          <mxGeometry x="20" y="10" width="330" height="120" as="geometry" />
        </mxCell>
        <mxCell id="EiuZzaFnxPziSjAOLLgH-2" value="PLANTS" style="swimlane;fontStyle=0;childLayout=stackLayout;horizontal=1;startSize=30;horizontalStack=0;resizeParent=1;resizeParentMax=0;resizeLast=0;collapsible=1;marginBottom=0;" parent="1" vertex="1">
          <mxGeometry x="30" y="460" width="140" height="210" as="geometry">
            <mxRectangle x="40" y="230" width="50" height="90" as="alternateBounds" />
          </mxGeometry>
        </mxCell>
        <mxCell id="EiuZzaFnxPziSjAOLLgH-5" value="PLANT ID" style="text;strokeColor=#d6b656;fillColor=#fff2cc;align=left;verticalAlign=middle;spacingLeft=4;spacingRight=4;overflow=hidden;points=[[0,0.5],[1,0.5]];portConstraint=eastwest;rotatable=0;" parent="EiuZzaFnxPziSjAOLLgH-2" vertex="1">
          <mxGeometry y="30" width="140" height="30" as="geometry" />
        </mxCell>
        <mxCell id="EiuZzaFnxPziSjAOLLgH-8" value="PLANTED_DATE" style="text;strokeColor=#36393d;fillColor=#eeeeee;align=left;verticalAlign=middle;spacingLeft=4;spacingRight=4;overflow=hidden;points=[[0,0.5],[1,0.5]];portConstraint=eastwest;rotatable=0;" parent="EiuZzaFnxPziSjAOLLgH-2" vertex="1">
          <mxGeometry y="60" width="140" height="30" as="geometry" />
        </mxCell>
        <mxCell id="u0T1zVeiCHu8PzoIMrIV-15" value="PROJECT_ID" style="text;strokeColor=#6c8ebf;fillColor=#dae8fc;align=left;verticalAlign=middle;spacingLeft=4;spacingRight=4;overflow=hidden;points=[[0,0.5],[1,0.5]];portConstraint=eastwest;rotatable=0;" vertex="1" parent="EiuZzaFnxPziSjAOLLgH-2">
          <mxGeometry y="90" width="140" height="30" as="geometry" />
        </mxCell>
        <mxCell id="EiuZzaFnxPziSjAOLLgH-3" value="MATERIAL_ID" style="text;strokeColor=#6c8ebf;fillColor=#dae8fc;align=left;verticalAlign=middle;spacingLeft=4;spacingRight=4;overflow=hidden;points=[[0,0.5],[1,0.5]];portConstraint=eastwest;rotatable=0;" parent="EiuZzaFnxPziSjAOLLgH-2" vertex="1">
          <mxGeometry y="120" width="140" height="30" as="geometry" />
        </mxCell>
        <mxCell id="EiuZzaFnxPziSjAOLLgH-4" value="TYPE_ID" style="text;strokeColor=#6c8ebf;fillColor=#dae8fc;align=left;verticalAlign=middle;spacingLeft=4;spacingRight=4;overflow=hidden;points=[[0,0.5],[1,0.5]];portConstraint=eastwest;rotatable=0;" parent="EiuZzaFnxPziSjAOLLgH-2" vertex="1">
          <mxGeometry y="150" width="140" height="30" as="geometry" />
        </mxCell>
        <mxCell id="EiuZzaFnxPziSjAOLLgH-7" value="STATE_ID" style="text;strokeColor=#6c8ebf;fillColor=#dae8fc;align=left;verticalAlign=middle;spacingLeft=4;spacingRight=4;overflow=hidden;points=[[0,0.5],[1,0.5]];portConstraint=eastwest;rotatable=0;" parent="EiuZzaFnxPziSjAOLLgH-2" vertex="1">
          <mxGeometry y="180" width="140" height="30" as="geometry" />
        </mxCell>
        <mxCell id="EiuZzaFnxPziSjAOLLgH-9" value="" style="rounded=1;whiteSpace=wrap;html=1;fillColor=#dae8fc;strokeColor=#6c8ebf;" parent="1" vertex="1">
          <mxGeometry x="380" y="60" width="20" height="20" as="geometry" />
        </mxCell>
        <mxCell id="EiuZzaFnxPziSjAOLLgH-10" value="" style="rounded=1;whiteSpace=wrap;html=1;fillColor=#fff2cc;strokeColor=#d6b656;" parent="1" vertex="1">
          <mxGeometry x="380" y="20" width="20" height="20" as="geometry" />
        </mxCell>
        <mxCell id="EiuZzaFnxPziSjAOLLgH-11" value="PRIMARY KEY" style="text;html=1;strokeColor=none;fillColor=none;align=center;verticalAlign=middle;whiteSpace=wrap;rounded=0;" parent="1" vertex="1">
          <mxGeometry x="410" y="20" width="110" height="22.5" as="geometry" />
        </mxCell>
        <mxCell id="EiuZzaFnxPziSjAOLLgH-12" value="FOREIGN&amp;nbsp; KEY" style="text;html=1;strokeColor=none;fillColor=none;align=center;verticalAlign=middle;whiteSpace=wrap;rounded=0;" parent="1" vertex="1">
          <mxGeometry x="410" y="58.75" width="110" height="22.5" as="geometry" />
        </mxCell>
        <mxCell id="EiuZzaFnxPziSjAOLLgH-13" value="PLANT TYPE" style="swimlane;fontStyle=0;childLayout=stackLayout;horizontal=1;startSize=30;horizontalStack=0;resizeParent=1;resizeParentMax=0;resizeLast=0;collapsible=1;marginBottom=0;" parent="1" vertex="1">
          <mxGeometry x="285" y="460" width="140" height="180" as="geometry">
            <mxRectangle x="40" y="230" width="50" height="90" as="alternateBounds" />
          </mxGeometry>
        </mxCell>
        <mxCell id="EiuZzaFnxPziSjAOLLgH-14" value="TYPE_ID" style="text;strokeColor=#d6b656;fillColor=#fff2cc;align=left;verticalAlign=middle;spacingLeft=4;spacingRight=4;overflow=hidden;points=[[0,0.5],[1,0.5]];portConstraint=eastwest;rotatable=0;" parent="EiuZzaFnxPziSjAOLLgH-13" vertex="1">
          <mxGeometry y="30" width="140" height="30" as="geometry" />
        </mxCell>
        <mxCell id="EiuZzaFnxPziSjAOLLgH-16" value="NAME" style="text;strokeColor=#36393d;fillColor=#eeeeee;align=left;verticalAlign=middle;spacingLeft=4;spacingRight=4;overflow=hidden;points=[[0,0.5],[1,0.5]];portConstraint=eastwest;rotatable=0;" parent="EiuZzaFnxPziSjAOLLgH-13" vertex="1">
          <mxGeometry y="60" width="140" height="30" as="geometry" />
        </mxCell>
        <mxCell id="u0T1zVeiCHu8PzoIMrIV-7" value="DESCRIPTION" style="text;strokeColor=#36393d;fillColor=#eeeeee;align=left;verticalAlign=middle;spacingLeft=4;spacingRight=4;overflow=hidden;points=[[0,0.5],[1,0.5]];portConstraint=eastwest;rotatable=0;" vertex="1" parent="EiuZzaFnxPziSjAOLLgH-13">
          <mxGeometry y="90" width="140" height="30" as="geometry" />
        </mxCell>
        <mxCell id="u0T1zVeiCHu8PzoIMrIV-10" value="MATERIAL_ID" style="text;strokeColor=#36393d;fillColor=#cce5ff;align=left;verticalAlign=middle;spacingLeft=4;spacingRight=4;overflow=hidden;points=[[0,0.5],[1,0.5]];portConstraint=eastwest;rotatable=0;" vertex="1" parent="EiuZzaFnxPziSjAOLLgH-13">
          <mxGeometry y="120" width="140" height="30" as="geometry" />
        </mxCell>
        <mxCell id="u0T1zVeiCHu8PzoIMrIV-11" value="AILMENT_ID" style="text;strokeColor=#36393d;fillColor=#cce5ff;align=left;verticalAlign=middle;spacingLeft=4;spacingRight=4;overflow=hidden;points=[[0,0.5],[1,0.5]];portConstraint=eastwest;rotatable=0;" vertex="1" parent="EiuZzaFnxPziSjAOLLgH-13">
          <mxGeometry y="150" width="140" height="30" as="geometry" />
        </mxCell>
        <mxCell id="EiuZzaFnxPziSjAOLLgH-21" value="AILMENTS" style="swimlane;fontStyle=0;childLayout=stackLayout;horizontal=1;startSize=30;horizontalStack=0;resizeParent=1;resizeParentMax=0;resizeLast=0;collapsible=1;marginBottom=0;" parent="1" vertex="1">
          <mxGeometry x="30" y="850" width="140" height="150" as="geometry">
            <mxRectangle x="40" y="230" width="50" height="90" as="alternateBounds" />
          </mxGeometry>
        </mxCell>
        <mxCell id="EiuZzaFnxPziSjAOLLgH-22" value="AILMENT" style="text;strokeColor=#36393d;fillColor=#eeeeee;align=left;verticalAlign=middle;spacingLeft=4;spacingRight=4;overflow=hidden;points=[[0,0.5],[1,0.5]];portConstraint=eastwest;rotatable=0;" parent="EiuZzaFnxPziSjAOLLgH-21" vertex="1">
          <mxGeometry y="30" width="140" height="30" as="geometry" />
        </mxCell>
        <mxCell id="EiuZzaFnxPziSjAOLLgH-23" value="SYMPTOM ID" style="text;strokeColor=#6c8ebf;fillColor=#dae8fc;align=left;verticalAlign=middle;spacingLeft=4;spacingRight=4;overflow=hidden;points=[[0,0.5],[1,0.5]];portConstraint=eastwest;rotatable=0;" parent="EiuZzaFnxPziSjAOLLgH-21" vertex="1">
          <mxGeometry y="60" width="140" height="30" as="geometry" />
        </mxCell>
        <mxCell id="EiuZzaFnxPziSjAOLLgH-24" value="ID" style="text;strokeColor=#d6b656;fillColor=#fff2cc;align=left;verticalAlign=middle;spacingLeft=4;spacingRight=4;overflow=hidden;points=[[0,0.5],[1,0.5]];portConstraint=eastwest;rotatable=0;" parent="EiuZzaFnxPziSjAOLLgH-21" vertex="1">
          <mxGeometry y="90" width="140" height="30" as="geometry" />
        </mxCell>
        <mxCell id="EiuZzaFnxPziSjAOLLgH-25" value="REMEDIES" style="text;strokeColor=#6c8ebf;fillColor=#dae8fc;align=left;verticalAlign=middle;spacingLeft=4;spacingRight=4;overflow=hidden;points=[[0,0.5],[1,0.5]];portConstraint=eastwest;rotatable=0;" parent="EiuZzaFnxPziSjAOLLgH-21" vertex="1">
          <mxGeometry y="120" width="140" height="30" as="geometry" />
        </mxCell>
        <mxCell id="EiuZzaFnxPziSjAOLLgH-28" value="SYMTOMPS" style="swimlane;fontStyle=0;childLayout=stackLayout;horizontal=1;startSize=30;horizontalStack=0;resizeParent=1;resizeParentMax=0;resizeLast=0;collapsible=1;marginBottom=0;" parent="1" vertex="1">
          <mxGeometry x="285" y="830" width="140" height="120" as="geometry">
            <mxRectangle x="40" y="230" width="50" height="90" as="alternateBounds" />
          </mxGeometry>
        </mxCell>
        <mxCell id="EiuZzaFnxPziSjAOLLgH-29" value="ID" style="text;strokeColor=#d6b656;fillColor=#fff2cc;align=left;verticalAlign=middle;spacingLeft=4;spacingRight=4;overflow=hidden;points=[[0,0.5],[1,0.5]];portConstraint=eastwest;rotatable=0;" parent="EiuZzaFnxPziSjAOLLgH-28" vertex="1">
          <mxGeometry y="30" width="140" height="30" as="geometry" />
        </mxCell>
        <mxCell id="EiuZzaFnxPziSjAOLLgH-30" value="SYMPTOM" style="text;strokeColor=#36393d;fillColor=#eeeeee;align=left;verticalAlign=middle;spacingLeft=4;spacingRight=4;overflow=hidden;points=[[0,0.5],[1,0.5]];portConstraint=eastwest;rotatable=0;" parent="EiuZzaFnxPziSjAOLLgH-28" vertex="1">
          <mxGeometry y="60" width="140" height="30" as="geometry" />
        </mxCell>
        <mxCell id="u0T1zVeiCHu8PzoIMrIV-13" value="DESCRIPTION" style="text;strokeColor=#36393d;fillColor=#eeeeee;align=left;verticalAlign=middle;spacingLeft=4;spacingRight=4;overflow=hidden;points=[[0,0.5],[1,0.5]];portConstraint=eastwest;rotatable=0;" vertex="1" parent="EiuZzaFnxPziSjAOLLgH-28">
          <mxGeometry y="90" width="140" height="30" as="geometry" />
        </mxCell>
        <mxCell id="EiuZzaFnxPziSjAOLLgH-33" value="MATERIALS" style="swimlane;fontStyle=0;childLayout=stackLayout;horizontal=1;startSize=30;horizontalStack=0;resizeParent=1;resizeParentMax=0;resizeLast=0;collapsible=1;marginBottom=0;" parent="1" vertex="1">
          <mxGeometry x="285" y="310" width="140" height="120" as="geometry">
            <mxRectangle x="40" y="230" width="50" height="90" as="alternateBounds" />
          </mxGeometry>
        </mxCell>
        <mxCell id="EiuZzaFnxPziSjAOLLgH-34" value="ID" style="text;strokeColor=#d6b656;fillColor=#fff2cc;align=left;verticalAlign=middle;spacingLeft=4;spacingRight=4;overflow=hidden;points=[[0,0.5],[1,0.5]];portConstraint=eastwest;rotatable=0;" parent="EiuZzaFnxPziSjAOLLgH-33" vertex="1">
          <mxGeometry y="30" width="140" height="30" as="geometry" />
        </mxCell>
        <mxCell id="EiuZzaFnxPziSjAOLLgH-35" value="NAME" style="text;strokeColor=#36393d;fillColor=#eeeeee;align=left;verticalAlign=middle;spacingLeft=4;spacingRight=4;overflow=hidden;points=[[0,0.5],[1,0.5]];portConstraint=eastwest;rotatable=0;" parent="EiuZzaFnxPziSjAOLLgH-33" vertex="1">
          <mxGeometry y="60" width="140" height="30" as="geometry" />
        </mxCell>
        <mxCell id="EiuZzaFnxPziSjAOLLgH-36" value="DESCRIPTION" style="text;strokeColor=#36393d;fillColor=#eeeeee;align=left;verticalAlign=middle;spacingLeft=4;spacingRight=4;overflow=hidden;points=[[0,0.5],[1,0.5]];portConstraint=eastwest;rotatable=0;" parent="EiuZzaFnxPziSjAOLLgH-33" vertex="1">
          <mxGeometry y="90" width="140" height="30" as="geometry" />
        </mxCell>
        <mxCell id="EiuZzaFnxPziSjAOLLgH-38" value="PROJECTS" style="swimlane;fontStyle=0;childLayout=stackLayout;horizontal=1;startSize=30;horizontalStack=0;resizeParent=1;resizeParentMax=0;resizeLast=0;collapsible=1;marginBottom=0;" parent="1" vertex="1">
          <mxGeometry x="285" y="170" width="140" height="120" as="geometry">
            <mxRectangle x="40" y="230" width="50" height="90" as="alternateBounds" />
          </mxGeometry>
        </mxCell>
        <mxCell id="EiuZzaFnxPziSjAOLLgH-39" value="PROJECT_ID" style="text;strokeColor=#d6b656;fillColor=#fff2cc;align=left;verticalAlign=middle;spacingLeft=4;spacingRight=4;overflow=hidden;points=[[0,0.5],[1,0.5]];portConstraint=eastwest;rotatable=0;" parent="EiuZzaFnxPziSjAOLLgH-38" vertex="1">
          <mxGeometry y="30" width="140" height="30" as="geometry" />
        </mxCell>
        <mxCell id="EiuZzaFnxPziSjAOLLgH-40" value="NAME" style="text;strokeColor=#36393d;fillColor=#eeeeee;align=left;verticalAlign=middle;spacingLeft=4;spacingRight=4;overflow=hidden;points=[[0,0.5],[1,0.5]];portConstraint=eastwest;rotatable=0;" parent="EiuZzaFnxPziSjAOLLgH-38" vertex="1">
          <mxGeometry y="60" width="140" height="30" as="geometry" />
        </mxCell>
        <mxCell id="EiuZzaFnxPziSjAOLLgH-41" value="DESCRIPTION" style="text;strokeColor=#36393d;fillColor=#eeeeee;align=left;verticalAlign=middle;spacingLeft=4;spacingRight=4;overflow=hidden;points=[[0,0.5],[1,0.5]];portConstraint=eastwest;rotatable=0;" parent="EiuZzaFnxPziSjAOLLgH-38" vertex="1">
          <mxGeometry y="90" width="140" height="30" as="geometry" />
        </mxCell>
        <mxCell id="EiuZzaFnxPziSjAOLLgH-43" value="" style="edgeStyle=entityRelationEdgeStyle;fontSize=12;html=1;endArrow=ERoneToMany;rounded=0;exitX=0;exitY=0.5;exitDx=0;exitDy=0;entryX=1;entryY=0.5;entryDx=0;entryDy=0;" parent="1" source="EiuZzaFnxPziSjAOLLgH-14" target="EiuZzaFnxPziSjAOLLgH-4" edge="1">
          <mxGeometry width="100" height="100" relative="1" as="geometry">
            <mxPoint x="310" y="480" as="sourcePoint" />
            <mxPoint x="410" y="380" as="targetPoint" />
          </mxGeometry>
        </mxCell>
        <mxCell id="EiuZzaFnxPziSjAOLLgH-45" value="" style="edgeStyle=entityRelationEdgeStyle;fontSize=12;html=1;endArrow=ERoneToMany;rounded=0;entryX=1;entryY=0.5;entryDx=0;entryDy=0;exitX=0;exitY=0.5;exitDx=0;exitDy=0;" parent="1" source="EiuZzaFnxPziSjAOLLgH-29" target="EiuZzaFnxPziSjAOLLgH-21" edge="1">
          <mxGeometry width="100" height="100" relative="1" as="geometry">
            <mxPoint x="440" y="620" as="sourcePoint" />
            <mxPoint x="540" y="520" as="targetPoint" />
          </mxGeometry>
        </mxCell>
        <mxCell id="EiuZzaFnxPziSjAOLLgH-50" value="REMEDIES" style="swimlane;fontStyle=0;childLayout=stackLayout;horizontal=1;startSize=30;horizontalStack=0;resizeParent=1;resizeParentMax=0;resizeLast=0;collapsible=1;marginBottom=0;" parent="1" vertex="1">
          <mxGeometry x="285" y="970" width="140" height="120" as="geometry">
            <mxRectangle x="40" y="230" width="50" height="90" as="alternateBounds" />
          </mxGeometry>
        </mxCell>
        <mxCell id="EiuZzaFnxPziSjAOLLgH-51" value="ID" style="text;strokeColor=#d6b656;fillColor=#fff2cc;align=left;verticalAlign=middle;spacingLeft=4;spacingRight=4;overflow=hidden;points=[[0,0.5],[1,0.5]];portConstraint=eastwest;rotatable=0;" parent="EiuZzaFnxPziSjAOLLgH-50" vertex="1">
          <mxGeometry y="30" width="140" height="30" as="geometry" />
        </mxCell>
        <mxCell id="EiuZzaFnxPziSjAOLLgH-52" value="NAME " style="text;strokeColor=#36393d;fillColor=#eeeeee;align=left;verticalAlign=middle;spacingLeft=4;spacingRight=4;overflow=hidden;points=[[0,0.5],[1,0.5]];portConstraint=eastwest;rotatable=0;" parent="EiuZzaFnxPziSjAOLLgH-50" vertex="1">
          <mxGeometry y="60" width="140" height="30" as="geometry" />
        </mxCell>
        <mxCell id="EiuZzaFnxPziSjAOLLgH-53" value="DESCRIPTION" style="text;strokeColor=#36393d;fillColor=#eeeeee;align=left;verticalAlign=middle;spacingLeft=4;spacingRight=4;overflow=hidden;points=[[0,0.5],[1,0.5]];portConstraint=eastwest;rotatable=0;" parent="EiuZzaFnxPziSjAOLLgH-50" vertex="1">
          <mxGeometry y="90" width="140" height="30" as="geometry" />
        </mxCell>
        <mxCell id="EiuZzaFnxPziSjAOLLgH-54" value="" style="edgeStyle=entityRelationEdgeStyle;fontSize=12;html=1;endArrow=ERoneToMany;rounded=0;entryX=1;entryY=0.5;entryDx=0;entryDy=0;exitX=0;exitY=0.5;exitDx=0;exitDy=0;" parent="1" source="EiuZzaFnxPziSjAOLLgH-51" target="EiuZzaFnxPziSjAOLLgH-25" edge="1">
          <mxGeometry width="100" height="100" relative="1" as="geometry">
            <mxPoint x="625" y="420" as="sourcePoint" />
            <mxPoint x="410" y="470" as="targetPoint" />
          </mxGeometry>
        </mxCell>
        <mxCell id="EiuZzaFnxPziSjAOLLgH-55" value="" style="edgeStyle=entityRelationEdgeStyle;fontSize=12;html=1;endArrow=ERoneToMany;rounded=0;entryX=1;entryY=0.5;entryDx=0;entryDy=0;" parent="1" source="EiuZzaFnxPziSjAOLLgH-34" target="EiuZzaFnxPziSjAOLLgH-3" edge="1">
          <mxGeometry width="100" height="100" relative="1" as="geometry">
            <mxPoint x="310" y="295" as="sourcePoint" />
            <mxPoint x="180" y="575" as="targetPoint" />
          </mxGeometry>
        </mxCell>
        <mxCell id="u0T1zVeiCHu8PzoIMrIV-1" value="LIFE CYCLE" style="swimlane;fontStyle=0;childLayout=stackLayout;horizontal=1;startSize=30;horizontalStack=0;resizeParent=1;resizeParentMax=0;resizeLast=0;collapsible=1;marginBottom=0;" vertex="1" parent="1">
          <mxGeometry x="285" y="670" width="140" height="120" as="geometry">
            <mxRectangle x="40" y="230" width="50" height="90" as="alternateBounds" />
          </mxGeometry>
        </mxCell>
        <mxCell id="u0T1zVeiCHu8PzoIMrIV-4" value="STATE_ID" style="text;strokeColor=#d6b656;fillColor=#fff2cc;align=left;verticalAlign=middle;spacingLeft=4;spacingRight=4;overflow=hidden;points=[[0,0.5],[1,0.5]];portConstraint=eastwest;rotatable=0;" vertex="1" parent="u0T1zVeiCHu8PzoIMrIV-1">
          <mxGeometry y="30" width="140" height="30" as="geometry" />
        </mxCell>
        <mxCell id="u0T1zVeiCHu8PzoIMrIV-2" value="NAME" style="text;strokeColor=#36393d;fillColor=#eeeeee;align=left;verticalAlign=middle;spacingLeft=4;spacingRight=4;overflow=hidden;points=[[0,0.5],[1,0.5]];portConstraint=eastwest;rotatable=0;" vertex="1" parent="u0T1zVeiCHu8PzoIMrIV-1">
          <mxGeometry y="60" width="140" height="30" as="geometry" />
        </mxCell>
        <mxCell id="u0T1zVeiCHu8PzoIMrIV-5" value="DESCRIPTION" style="text;strokeColor=#36393d;fillColor=#eeeeee;align=left;verticalAlign=middle;spacingLeft=4;spacingRight=4;overflow=hidden;points=[[0,0.5],[1,0.5]];portConstraint=eastwest;rotatable=0;" vertex="1" parent="u0T1zVeiCHu8PzoIMrIV-1">
          <mxGeometry y="90" width="140" height="30" as="geometry" />
        </mxCell>
        <mxCell id="u0T1zVeiCHu8PzoIMrIV-6" value="" style="edgeStyle=entityRelationEdgeStyle;fontSize=12;html=1;endArrow=ERoneToMany;rounded=0;entryX=1;entryY=0.5;entryDx=0;entryDy=0;exitX=0;exitY=0.5;exitDx=0;exitDy=0;" edge="1" parent="1" source="u0T1zVeiCHu8PzoIMrIV-4" target="EiuZzaFnxPziSjAOLLgH-7">
          <mxGeometry width="100" height="100" relative="1" as="geometry">
            <mxPoint x="80" y="730" as="sourcePoint" />
            <mxPoint x="200" y="780" as="targetPoint" />
          </mxGeometry>
        </mxCell>
        <mxCell id="u0T1zVeiCHu8PzoIMrIV-12" value="" style="edgeStyle=entityRelationEdgeStyle;fontSize=12;html=1;endArrow=ERoneToMany;rounded=0;exitX=1;exitY=0.5;exitDx=0;exitDy=0;entryX=1;entryY=0.75;entryDx=0;entryDy=0;" edge="1" parent="1" source="EiuZzaFnxPziSjAOLLgH-34" target="EiuZzaFnxPziSjAOLLgH-13">
          <mxGeometry width="100" height="100" relative="1" as="geometry">
            <mxPoint x="585" y="515" as="sourcePoint" />
            <mxPoint x="470" y="605" as="targetPoint" />
          </mxGeometry>
        </mxCell>
        <mxCell id="u0T1zVeiCHu8PzoIMrIV-14" value="" style="edgeStyle=entityRelationEdgeStyle;fontSize=12;html=1;endArrow=ERoneToMany;rounded=0;entryX=1;entryY=0.5;entryDx=0;entryDy=0;exitX=0;exitY=0.5;exitDx=0;exitDy=0;fillColor=#ffcc99;strokeColor=#36393d;" edge="1" parent="1" source="EiuZzaFnxPziSjAOLLgH-39" target="u0T1zVeiCHu8PzoIMrIV-15">
          <mxGeometry width="100" height="100" relative="1" as="geometry">
            <mxPoint x="200" y="235" as="sourcePoint" />
            <mxPoint x="220" y="610" as="targetPoint" />
          </mxGeometry>
        </mxCell>
      </root>
    </mxGraphModel>
  </diagram>
</mxfile>
